{
 "accessors": [
  {
   "componentType": 5126,
   "type": "VEC3",
   "count": 384,
   "max": [
    547.4132690429688,
    246.92147827148438,
    -54.616825103759766
   ],
   "min": [
    -437.5011291503906,
    -398.84234619140625,
    -617.5065307617188
   ],
   "bufferView": 5
  },
  {
   "componentType": 5126,
   "type": "VEC3",
   "count": 384,
   "bufferView": 6
  },
  {
   "componentType": 5126,
   "type": "VEC2",
   "count": 384,
   "bufferView": 7
  },
  {
   "componentType": 5123,
   "type": "SCALAR",
   "count": 606,
   "bufferView": 8
  },
  {
   "componentType": 5126,
   "type": "VEC3",
   "count": 310,
   "max": [
    480.1521301269531,
    94.6492691040039,
    486.03765869140625
   ],
   "min": [
    -445.68902587890625,
    -261.6366271972656,
    -616.0006713867188
   ],
   "bufferView": 9
  },
  {
   "componentType": 5126,
   "type": "VEC3",
   "count": 310,
   "bufferView": 10
  },
  {
   "componentType": 5126,
   "type": "VEC2",
   "count": 310,
   "bufferView": 11
  },
  {
   "componentType": 5123,
   "type": "SCALAR",
   "count": 654,
   "bufferView": 12
  },
  {
   "componentType": 5126,
   "type": "VEC3",
   "count": 30,
   "max": [
    4.755300045013428,
    10,
    5
   ],
   "min": [
    -4.755300045013428,
    -10,
    -5
   ],
   "bufferView": 13
  },
  {
   "componentType": 5126,
   "type": "VEC3",
   "count": 30,
   "bufferView": 14
  },
  {
   "componentType": 5126,
   "type": "VEC2",
   "count": 30,
   "bufferView": 15
  },
  {
   "componentType": 5121,
   "type": "SCALAR",
   "count": 60,
   "bufferView": 16
  },
  {
   "componentType": 5126,
   "type": "VEC3",
   "count": 30,
   "max": [
    4.755300045013428,
    10,
    5
   ],
   "min": [
    -4.755300045013428,
    -10,
    -5
   ],
   "bufferView": 17
  },
  {
   "componentType": 5126,
   "type": "VEC3",
   "count": 30,
   "bufferView": 18
  },
  {
   "componentType": 5126,
   "type": "VEC2",
   "count": 30,
   "bufferView": 19
  },
  {
   "componentType": 5121,
   "type": "SCALAR",
   "count": 60,
   "bufferView": 20
  },
  {
   "componentType": 5126,
   "type": "VEC3",
   "count": 30,
   "max": [
    4.755300045013428,
    10,
    5
   ],
   "min": [
    -4.755300045013428,
    -10,
    -5
   ],
   "bufferView": 21
  },
  {
   "componentType": 5126,
   "type": "VEC3",
   "count": 30,
   "bufferView": 22
  },
  {
   "componentType": 5126,
   "type": "VEC2",
   "count": 30,
   "bufferView": 23
  },
  {
   "componentType": 5121,
   "type": "SCALAR",
   "count": 60,
   "bufferView": 24
  },
  {
   "componentType": 5126,
   "type": "VEC3",
   "count": 30,
   "max": [
    4.755300045013428,
    10,
    5
   ],
   "min": [
    -4.755300045013428,
    -10,
    -5
   ],
   "bufferView": 25
  },
  {
   "componentType": 5126,
   "type": "VEC3",
   "count": 30,
   "bufferView": 26
  },
  {
   "componentType": 5126,
   "type": "VEC2",
   "count": 30,
   "bufferView": 27
  },
  {
   "componentType": 5121,
   "type": "SCALAR",
   "count": 60,
   "bufferView": 28
  },
  {
   "componentType": 5126,
   "type": "VEC3",
   "count": 30,
   "max": [
    4.755300045013428,
    10,
    5
   ],
   "min": [
    -4.755300045013428,
    -10,
    -5
   ],
   "bufferView": 29
  },
  {
   "componentType": 5126,
   "type": "VEC3",
   "count": 30,
   "bufferView": 30
  },
  {
   "componentType": 5126,
   "type": "VEC2",
   "count": 30,
   "bufferView": 31
  },
  {
   "componentType": 5121,
   "type": "SCALAR",
   "count": 60,
   "bufferView": 32
  },
  {
   "componentType": 5126,
   "type": "VEC3",
   "count": 30,
   "max": [
    4.755300045013428,
    10,
    5
   ],
   "min": [
    -4.755300045013428,
    -10,
    -5
   ],
   "bufferView": 33
  },
  {
   "componentType": 5126,
   "type": "VEC3",
   "count": 30,
   "bufferView": 34
  },
  {
   "componentType": 5126,
   "type": "VEC2",
   "count": 30,
   "bufferView": 35
  },
  {
   "componentType": 5121,
   "type": "SCALAR",
   "count": 60,
   "bufferView": 36
  },
  {
   "componentType": 5126,
   "type": "VEC3",
   "count": 4,
   "max": [
    800,
    4.898587367989024e-14,
    800
   ],
   "min": [
    -800,
    -4.898587367989024e-14,
    -800
   ],
   "bufferView": 37
  },
  {
   "componentType": 5126,
   "type": "VEC3",
   "count": 4,
   "bufferView": 38
  },
  {
   "componentType": 5126,
   "type": "VEC2",
   "count": 4,
   "bufferView": 39
  },
  {
   "componentType": 5121,
   "type": "SCALAR",
   "count": 6,
   "bufferView": 40
  },
  {
   "componentType": 5126,
   "type": "VEC3",
   "count": 98,
   "max": [
    403.7392883300781,
    246.92147827148438,
    -87.58777618408203
   ],
   "min": [
    -298.58209228515625,
    89.68885803222656,
    -407.05889892578125
   ],
   "bufferView": 41
  },
  {
   "componentType": 5126,
   "type": "VEC3",
   "count": 98,
   "bufferView": 42
  },
  {
   "componentType": 5126,
   "type": "VEC2",
   "count": 98,
   "bufferView": 43
  },
  {
   "componentType": 5121,
   "type": "SCALAR",
   "count": 168,
   "bufferView": 44
  },
  {
   "componentType": 5126,
   "type": "VEC3",
   "count": 1480,
   "max": [
    300.4151916503906,
    94.59877014160156,
    307.1522216796875
   ],
   "min": [
    -306.77001953125,
    -7.423929691314697,
    -305.55303955078125
   ],
   "bufferView": 45
  },
  {
   "componentType": 5126,
   "type": "VEC3",
   "count": 1480,
   "bufferView": 46
  },
  {
   "componentType": 5126,
   "type": "VEC2",
   "count": 1480,
   "bufferView": 47
  },
  {
   "componentType": 5123,
   "type": "SCALAR",
   "count": 2220,
   "bufferView": 48
  },
  {
   "componentType": 5126,
   "type": "VEC3",
   "count": 179,
   "max": [
    1,
    10.399999618530273,
    1
   ],
   "min": [
    -1,
    -0.5,
    -1
   ],
   "bufferView": 49
  },
  {
   "componentType": 5126,
   "type": "VEC3",
   "count": 179,
   "bufferView": 50
  },
  {
   "componentType": 5126,
   "type": "VEC2",
   "count": 179,
   "bufferView": 51
  },
  {
   "componentType": 5121,
   "type": "SCALAR",
   "count": 504,
   "bufferView": 52
  },
  {
   "componentType": 5126,
   "type": "VEC3",
   "count": 179,
   "max": [
    1,
    10.399999618530273,
    1
   ],
   "min": [
    -1,
    -0.5,
    -1
   ],
   "bufferView": 53
  },
  {
   "componentType": 5126,
   "type": "VEC3",
   "count": 179,
   "bufferView": 54
  },
  {
   "componentType": 5126,
   "type": "VEC2",
   "count": 179,
   "bufferView": 55
  },
  {
   "componentType": 5121,
   "type": "SCALAR",
   "count": 504,
   "bufferView": 56
  },
  {
   "componentType": 5126,
   "type": "VEC3",
   "count": 179,
   "max": [
    1,
    10.399999618530273,
    1
   ],
   "min": [
    -1,
    -0.5,
    -1
   ],
   "bufferView": 57
  },
  {
   "componentType": 5126,
   "type": "VEC3",
   "count": 179,
   "bufferView": 58
  },
  {
   "componentType": 5126,
   "type": "VEC2",
   "count": 179,
   "bufferView": 59
  },
  {
   "componentType": 5121,
   "type": "SCALAR",
   "count": 504,
   "bufferView": 60
  },
  {
   "componentType": 5126,
   "type": "VEC3",
   "count": 179,
   "max": [
    1,
    10.399999618530273,
    1
   ],
   "min": [
    -1,
    -0.5,
    -1
   ],
   "bufferView": 61
  },
  {
   "componentType": 5126,
   "type": "VEC3",
   "count": 179,
   "bufferView": 62
  },
  {
   "componentType": 5126,
   "type": "VEC2",
   "count": 179,
   "bufferView": 63
  },
  {
   "componentType": 5121,
   "type": "SCALAR",
   "count": 504,
   "bufferView": 64
  },
  {
   "componentType": 5126,
   "type": "VEC3",
   "count": 179,
   "max": [
    1,
    10.399999618530273,
    1
   ],
   "min": [
    -1,
    -0.5,
    -1
   ],
   "bufferView": 65
  },
  {
   "componentType": 5126,
   "type": "VEC3",
   "count": 179,
   "bufferView": 66
  },
  {
   "componentType": 5126,
   "type": "VEC2",
   "count": 179,
   "bufferView": 67
  },
  {
   "componentType": 5121,
   "type": "SCALAR",
   "count": 504,
   "bufferView": 68
  },
  {
   "componentType": 5126,
   "type": "VEC3",
   "count": 179,
   "max": [
    1,
    10.399999618530273,
    1
   ],
   "min": [
    -1,
    -0.5,
    -1
   ],
   "bufferView": 69
  },
  {
   "componentType": 5126,
   "type": "VEC3",
   "count": 179,
   "bufferView": 70
  },
  {
   "componentType": 5126,
   "type": "VEC2",
   "count": 179,
   "bufferView": 71
  },
  {
   "componentType": 5121,
   "type": "SCALAR",
   "count": 504,
   "bufferView": 72
  }
 ],
 "asset": {
  "version": "2.0",
  "generator": "clara.io"
 },
 "bufferViews": [
  {
   "buffer": 0,
   "byteOffset": 0,
   "byteLength": 1274
  },
  {
   "buffer": 0,
   "byteOffset": 8192,
   "byteLength": 5016
  },
  {
   "buffer": 0,
   "byteOffset": 13208,
   "byteLength": 13307
  },
  {
   "buffer": 0,
   "byteOffset": 26516,
   "byteLength": 3347
  },
  {
   "buffer": 0,
   "byteOffset": 34708,
   "byteLength": 3639
  },
  {
   "buffer": 0,
   "byteOffset": 42900,
   "byteLength": 4608,
   "target": 34962,
   "byteStride": 12
  },
  {
   "buffer": 0,
   "byteOffset": 47508,
   "byteLength": 4608,
   "target": 34962,
   "byteStride": 12
  },
  {
   "buffer": 0,
   "byteOffset": 52116,
   "byteLength": 3072,
   "target": 34962,
   "byteStride": 8
  },
  {
   "buffer": 0,
   "byteOffset": 55188,
   "byteLength": 1212,
   "target": 34963
  },
  {
   "buffer": 0,
   "byteOffset": 56400,
   "byteLength": 3720,
   "target": 34962,
   "byteStride": 12
  },
  {
   "buffer": 0,
   "byteOffset": 60120,
   "byteLength": 3720,
   "target": 34962,
   "byteStride": 12
  },
  {
   "buffer": 0,
   "byteOffset": 63840,
   "byteLength": 2480,
   "target": 34962,
   "byteStride": 8
  },
  {
   "buffer": 0,
   "byteOffset": 66320,
   "byteLength": 1308,
   "target": 34963
  },
  {
   "buffer": 0,
   "byteOffset": 67628,
   "byteLength": 360,
   "target": 34962,
   "byteStride": 12
  },
  {
   "buffer": 0,
   "byteOffset": 67988,
   "byteLength": 360,
   "target": 34962,
   "byteStride": 12
  },
  {
   "buffer": 0,
   "byteOffset": 68348,
   "byteLength": 240,
   "target": 34962,
   "byteStride": 8
  },
  {
   "buffer": 0,
   "byteOffset": 68588,
   "byteLength": 60,
   "target": 34963
  },
  {
   "buffer": 0,
   "byteOffset": 68648,
   "byteLength": 360,
   "target": 34962,
   "byteStride": 12
  },
  {
   "buffer": 0,
   "byteOffset": 69008,
   "byteLength": 360,
   "target": 34962,
   "byteStride": 12
  },
  {
   "buffer": 0,
   "byteOffset": 69368,
   "byteLength": 240,
   "target": 34962,
   "byteStride": 8
  },
  {
   "buffer": 0,
   "byteOffset": 69608,
   "byteLength": 60,
   "target": 34963
  },
  {
   "buffer": 0,
   "byteOffset": 69668,
   "byteLength": 360,
   "target": 34962,
   "byteStride": 12
  },
  {
   "buffer": 0,
   "byteOffset": 70028,
   "byteLength": 360,
   "target": 34962,
   "byteStride": 12
  },
  {
   "buffer": 0,
   "byteOffset": 70388,
   "byteLength": 240,
   "target": 34962,
   "byteStride": 8
  },
  {
   "buffer": 0,
   "byteOffset": 70628,
   "byteLength": 60,
   "target": 34963
  },
  {
   "buffer": 0,
   "byteOffset": 70688,
   "byteLength": 360,
   "target": 34962,
   "byteStride": 12
  },
  {
   "buffer": 0,
   "byteOffset": 71048,
   "byteLength": 360,
   "target": 34962,
   "byteStride": 12
  },
  {
   "buffer": 0,
   "byteOffset": 71408,
   "byteLength": 240,
   "target": 34962,
   "byteStride": 8
  },
  {
   "buffer": 0,
   "byteOffset": 71648,
   "byteLength": 60,
   "target": 34963
  },
  {
   "buffer": 0,
   "byteOffset": 71708,
   "byteLength": 360,
   "target": 34962,
   "byteStride": 12
  },
  {
   "buffer": 0,
   "byteOffset": 72068,
   "byteLength": 360,
   "target": 34962,
   "byteStride": 12
  },
  {
   "buffer": 0,
   "byteOffset": 72428,
   "byteLength": 240,
   "target": 34962,
   "byteStride": 8
  },
  {
   "buffer": 0,
   "byteOffset": 72668,
   "byteLength": 60,
   "target": 34963
  },
  {
   "buffer": 0,
   "byteOffset": 72728,
   "byteLength": 360,
   "target": 34962,
   "byteStride": 12
  },
  {
   "buffer": 0,
   "byteOffset": 73088,
   "byteLength": 360,
   "target": 34962,
   "byteStride": 12
  },
  {
   "buffer": 0,
   "byteOffset": 73448,
   "byteLength": 240,
   "target": 34962,
   "byteStride": 8
  },
  {
   "buffer": 0,
   "byteOffset": 73688,
   "byteLength": 60,
   "target": 34963
  },
  {
   "buffer": 0,
   "byteOffset": 73748,
   "byteLength": 48,
   "target": 34962,
   "byteStride": 12
  },
  {
   "buffer": 0,
   "byteOffset": 73796,
   "byteLength": 48,
   "target": 34962,
   "byteStride": 12
  },
  {
   "buffer": 0,
   "byteOffset": 73844,
   "byteLength": 32,
   "target": 34962,
   "byteStride": 8
  },
  {
   "buffer": 0,
   "byteOffset": 73876,
   "byteLength": 6,
   "target": 34963
  },
  {
   "buffer": 0,
   "byteOffset": 73884,
   "byteLength": 1176,
   "target": 34962,
   "byteStride": 12
  },
  {
   "buffer": 0,
   "byteOffset": 75060,
   "byteLength": 1176,
   "target": 34962,
   "byteStride": 12
  },
  {
   "buffer": 0,
   "byteOffset": 76236,
   "byteLength": 784,
   "target": 34962,
   "byteStride": 8
  },
  {
   "buffer": 0,
   "byteOffset": 77020,
   "byteLength": 168,
   "target": 34963
  },
  {
   "buffer": 0,
   "byteOffset": 77188,
   "byteLength": 17760,
   "target": 34962,
   "byteStride": 12
  },
  {
   "buffer": 0,
   "byteOffset": 94948,
   "byteLength": 17760,
   "target": 34962,
   "byteStride": 12
  },
  {
   "buffer": 0,
   "byteOffset": 112708,
   "byteLength": 11840,
   "target": 34962,
   "byteStride": 8
  },
  {
   "buffer": 0,
   "byteOffset": 124548,
   "byteLength": 4440,
   "target": 34963
  },
  {
   "buffer": 0,
   "byteOffset": 128988,
   "byteLength": 2148,
   "target": 34962,
   "byteStride": 12
  },
  {
   "buffer": 0,
   "byteOffset": 131136,
   "byteLength": 2148,
   "target": 34962,
   "byteStride": 12
  },
  {
   "buffer": 0,
   "byteOffset": 133284,
   "byteLength": 1432,
   "target": 34962,
   "byteStride": 8
  },
  {
   "buffer": 0,
   "byteOffset": 134716,
   "byteLength": 504,
   "target": 34963
  },
  {
   "buffer": 0,
   "byteOffset": 135220,
   "byteLength": 2148,
   "target": 34962,
   "byteStride": 12
  },
  {
   "buffer": 0,
   "byteOffset": 137368,
   "byteLength": 2148,
   "target": 34962,
   "byteStride": 12
  },
  {
   "buffer": 0,
   "byteOffset": 139516,
   "byteLength": 1432,
   "target": 34962,
   "byteStride": 8
  },
  {
   "buffer": 0,
   "byteOffset": 140948,
   "byteLength": 504,
   "target": 34963
  },
  {
   "buffer": 0,
   "byteOffset": 141452,
   "byteLength": 2148,
   "target": 34962,
   "byteStride": 12
  },
  {
   "buffer": 0,
   "byteOffset": 143600,
   "byteLength": 2148,
   "target": 34962,
   "byteStride": 12
  },
  {
   "buffer": 0,
   "byteOffset": 145748,
   "byteLength": 1432,
   "target": 34962,
   "byteStride": 8
  },
  {
   "buffer": 0,
   "byteOffset": 147180,
   "byteLength": 504,
   "target": 34963
  },
  {
   "buffer": 0,
   "byteOffset": 147684,
   "byteLength": 2148,
   "target": 34962,
   "byteStride": 12
  },
  {
   "buffer": 0,
   "byteOffset": 149832,
   "byteLength": 2148,
   "target": 34962,
   "byteStride": 12
  },
  {
   "buffer": 0,
   "byteOffset": 151980,
   "byteLength": 1432,
   "target": 34962,
   "byteStride": 8
  },
  {
   "buffer": 0,
   "byteOffset": 153412,
   "byteLength": 504,
   "target": 34963
  },
  {
   "buffer": 0,
   "byteOffset": 153916,
   "byteLength": 2148,
   "target": 34962,
   "byteStride": 12
  },
  {
   "buffer": 0,
   "byteOffset": 156064,
   "byteLength": 2148,
   "target": 34962,
   "byteStride": 12
  },
  {
   "buffer": 0,
   "byteOffset": 158212,
   "byteLength": 1432,
   "target": 34962,
   "byteStride": 8
  },
  {
   "buffer": 0,
   "byteOffset": 159644,
   "byteLength": 504,
   "target": 34963
  },
  {
   "buffer": 0,
   "byteOffset": 160148,
   "byteLength": 2148,
   "target": 34962,
   "byteStride": 12
  },
  {
   "buffer": 0,
   "byteOffset": 162296,
   "byteLength": 2148,
   "target": 34962,
   "byteStride": 12
  },
  {
   "buffer": 0,
   "byteOffset": 164444,
   "byteLength": 1432,
   "target": 34962,
   "byteStride": 8
  },
  {
   "buffer": 0,
   "byteOffset": 165876,
   "byteLength": 504,
   "target": 34963
  }
 ],
 "buffers": [
  {
   "byteLength": 166380,
   "uri": "data:application/octet-stream;base64,"
  }
 ],
 "images": [
  {
   "name": "grass.jpg",
   "bufferView": 0,
   "mimeType": "image/jpeg"
  },
  {
   "name": "stone.png",
   "bufferView": 1,
   "mimeType": "image/jpeg"
  },
  {
   "name": "sand.jpg",
   "bufferView": 2,
   "mimeType": "image/jpeg"
  },
  {
   "name": "bark.png",
   "bufferView": 3,
   "mimeType": "image/png"
  },
  {
   "name": "grass-normal.png",
   "bufferView": 4,
   "mimeType": "image/png"
  }
 ],
 "materials": [
  {
   "name": "Grass",
   "pbrMetallicRoughness": {
    "baseColorTexture": {
     "index": 0,
     "texCoord": 0
    },
    "roughnessFactor": 0.8165,
    "metallicFactor": 0
   },
   "normalTexture": {
    "index": 4,
    "scale": 0.005
   }
  },
  {
   "name": "Sand",
   "pbrMetallicRoughness": {
    "baseColorFactor": [
     0.996078431372549,
     0.9725490196078431,
     0.3843137254901961,
     1
    ],
    "baseColorTexture": {
     "index": 2,
     "texCoord": 0
    },
    "roughnessFactor": 0.4714,
    "metallicFactor": 0
   }
  },
  {
   "name": "Stone",
   "pbrMetallicRoughness": {
    "baseColorFactor": [
     0.7568627450980392,
     0.4235294117647059,
     0.11372549019607843,
     1
    ],
    "baseColorTexture": {
     "index": 1,
     "texCoord": 0
    },
    "roughnessFactor": 0.1961,
    "metallicFactor": 0
   }
  },
  {
   "name": "Water",
   "pbrMetallicRoughness": {
    "baseColorFactor": [
     0,
     0.5176470588235295,
     1,
     1
    ],
    "baseColorTexture": {
     "index": 1,
     "texCoord": 0
    },
    "roughnessFactor": 0.4714,
    "metallicFactor": 0
   },
   "doubleSided": true
  },
  {
   "name": "Bark",
   "pbrMetallicRoughness": {
    "baseColorFactor": [
     0.30980392156862746,
     0.16470588235294117,
     0,
     1
    ],
    "baseColorTexture": {
     "index": 3,
     "texCoord": 0
    },
    "roughnessFactor": 0.5345,
    "metallicFactor": 0
   }
  },
  {
   "name": "Leaves",
   "pbrMetallicRoughness": {
    "baseColorFactor": [
     0,
     1,
     0.1568627450980392,
     1
    ],
    "baseColorTexture": {
     "index": 0,
     "texCoord": 0
    },
    "roughnessFactor": 0.1961,
    "metallicFactor": 0
   }
  },
  {
   "name": "Leaves",
   "pbrMetallicRoughness": {
    "baseColorFactor": [
     0,
     1,
     0.1568627450980392,
     1
    ],
    "baseColorTexture": {
     "index": 0,
     "texCoord": 0
    },
    "roughnessFactor": 0.1961,
    "metallicFactor": 0
   },
   "doubleSided": true
  }
 ],
 "meshes": [
  {
   "primitives": [
    {
     "indices": 3,
     "material": 2,
     "mode": 4,
     "attributes": {
      "POSITION": 0,
      "NORMAL": 1,
      "TEXCOORD_0": 2
     }
    }
   ]
  },
  {
   "primitives": [
    {
     "indices": 7,
     "material": 1,
     "mode": 4,
     "attributes": {
      "POSITION": 4,
      "NORMAL": 5,
      "TEXCOORD_0": 6
     }
    }
   ]
  },
  {
   "primitives": [
    {
     "indices": 11,
     "material": 6,
     "mode": 4,
     "attributes": {
      "POSITION": 8,
      "NORMAL": 9,
      "TEXCOORD_0": 10
     }
    }
   ]
  },
  {
   "primitives": [
    {
     "indices": 15,
     "material": 5,
     "mode": 4,
     "attributes": {
      "POSITION": 12,
      "NORMAL": 13,
      "TEXCOORD_0": 14
     }
    }
   ]
  },
  {
   "primitives": [
    {
     "indices": 19,
     "material": 5,
     "mode": 4,
     "attributes": {
      "POSITION": 16,
      "NORMAL": 17,
      "TEXCOORD_0": 18
     }
    }
   ]
  },
  {
   "primitives": [
    {
     "indices": 23,
     "material": 5,
     "mode": 4,
     "attributes": {
      "POSITION": 20,
      "NORMAL": 21,
      "TEXCOORD_0": 22
     }
    }
   ]
  },
  {
   "primitives": [
    {
     "indices": 27,
     "material": 5,
     "mode": 4,
     "attributes": {
      "POSITION": 24,
      "NORMAL": 25,
      "TEXCOORD_0": 26
     }
    }
   ]
  },
  {
   "primitives": [
    {
     "indices": 31,
     "material": 5,
     "mode": 4,
     "attributes": {
      "POSITION": 28,
      "NORMAL": 29,
      "TEXCOORD_0": 30
     }
    }
   ]
  },
  {
   "primitives": [
    {
     "indices": 35,
     "material": 3,
     "mode": 4,
     "attributes": {
      "POSITION": 32,
      "NORMAL": 33,
      "TEXCOORD_0": 34
     }
    }
   ]
  },
  {
   "primitives": [
    {
     "indices": 39,
     "material": 2,
     "mode": 4,
     "attributes": {
      "POSITION": 36,
      "NORMAL": 37,
      "TEXCOORD_0": 38
     }
    }
   ]
  },
  {
   "primitives": [
    {
     "indices": 43,
     "material": 0,
     "mode": 4,
     "attributes": {
      "POSITION": 40,
      "NORMAL": 41,
      "TEXCOORD_0": 42
     }
    }
   ]
  },
  {
   "primitives": [
    {
     "indices": 47,
     "material": 4,
     "mode": 4,
     "attributes": {
      "POSITION": 44,
      "NORMAL": 45,
      "TEXCOORD_0": 46
     }
    }
   ]
  },
  {
   "primitives": [
    {
     "indices": 51,
     "material": 4,
     "mode": 4,
     "attributes": {
      "POSITION": 48,
      "NORMAL": 49,
      "TEXCOORD_0": 50
     }
    }
   ]
  },
  {
   "primitives": [
    {
     "indices": 55,
     "material": 4,
     "mode": 4,
     "attributes": {
      "POSITION": 52,
      "NORMAL": 53,
      "TEXCOORD_0": 54
     }
    }
   ]
  },
  {
   "primitives": [
    {
     "indices": 59,
     "material": 4,
     "mode": 4,
     "attributes": {
      "POSITION": 56,
      "NORMAL": 57,
      "TEXCOORD_0": 58
     }
    }
   ]
  },
  {
   "primitives": [
    {
     "indices": 63,
     "material": 4,
     "mode": 4,
     "attributes": {
      "POSITION": 60,
      "NORMAL": 61,
      "TEXCOORD_0": 62
     }
    }
   ]
  },
  {
   "primitives": [
    {
     "indices": 67,
     "material": 4,
     "mode": 4,
     "attributes": {
      "POSITION": 64,
      "NORMAL": 65,
      "TEXCOORD_0": 66
     }
    }
   ]
  }
 ],
 "nodes": [
  {
   "name": "Mountains",
   "mesh": 0
  },
  {
   "name": "Beaches",
   "mesh": 1
  },
  {
   "name": "NP_Leaves",
   "translation": [
    -3.4672000408172607,
    17.564899444580078,
    0
   ],
   "mesh": 2
  },
  {
   "name": "NP_Leaves1",
   "translation": [
    -193.11509704589844,
    15.652899742126465,
    58.04069900512695
   ],
   "mesh": 3
  },
  {
   "name": "NP_Leaves2",
   "translation": [
    -39.19540023803711,
    10.120100021362305,
    172.64480590820312
   ],
   "mesh": 4
  },
  {
   "name": "NP_Leaves3",
   "translation": [
    194.164794921875,
    11.217399597167969,
    95.73390197753906
   ],
   "mesh": 5
  },
  {
   "name": "NP_Leaves4",
   "translation": [
    -194.09629821777344,
    9.587299346923828,
    -189.79510498046875
   ],
   "mesh": 6
  },
  {
   "name": "NP_Leaves5",
   "translation": [
    183.4362030029297,
    16.021900177001953,
    -148.14210510253906
   ],
   "mesh": 7
  },
  {
   "name": "NP_Ocean",
   "translation": [
    0,
    -20,
    0
   ],
   "mesh": 8
  },
  {
   "name": "Pathway",
   "mesh": 9
  },
  {
   "name": "Plains",
   "mesh": 10
  },
  {
   "name": "Trunk",
   "translation": [
    -3.4672000408172607,
    5.803100109100342,
    0
   ],
   "mesh": 11
  },
  {
   "name": "Trunk1",
   "translation": [
    -193.11509704589844,
    3.8910999298095703,
    58.04069900512695
   ],
   "mesh": 12
  },
  {
   "name": "Trunk2",
   "translation": [
    -39.19540023803711,
    -1.641700029373169,
    172.64480590820312
   ],
   "mesh": 13
  },
  {
   "name": "Trunk3",
   "translation": [
    194.164794921875,
    -0.5443999767303467,
    95.73390197753906
   ],
   "mesh": 14
  },
  {
   "name": "Trunk4",
   "translation": [
    -194.09629821777344,
    -2.174499988555908,
    -189.79510498046875
   ],
   "mesh": 15
  },
  {
   "name": "Trunk5",
   "translation": [
    183.4362030029297,
    4.2600998878479,
    -148.14210510253906
   ],
   "mesh": 16
  }
 ],
 "samplers": [
  {
   "magFilter": 9729,
   "minFilter": 9987,
   "wrapS": 10497,
   "wrapT": 10497
  }
 ],
 "scene": 0,
 "scenes": [
  {
   "nodes": [
    0,
    1,
    2,
    3,
    4,
    5,
    6,
    7,
    8,
    9,
    10,
    11,
    12,
    13,
    14,
    15,
    16
   ]
  }
 ],
 "textures": [
  {
   "sampler": 0,
   "source": 0
  },
  {
   "sampler": 0,
   "source": 1
  },
  {
   "sampler": 0,
   "source": 2
  },
  {
   "sampler": 0,
   "source": 3
  },
  {
   "sampler": 0,
   "source": 4
  }
 ]
}